<svg width="124" height="105" viewBox="0 0 124 105" fill="none" xmlns="http://www.w3.org/2000/svg">
<ellipse cx="1.26852" cy="1.27255" rx="1.26852" ry="1.27255" transform="matrix(1 0 0 -1 62.866 19.6337)" fill="white"/>
<ellipse cx="3.98678" cy="3.99945" rx="3.98678" ry="3.99945" transform="matrix(1 0 0 -1 59.9665 14.5435)" fill="white"/>
<ellipse cx="3.98679" cy="3.99945" rx="3.98679" ry="3.99945" transform="matrix(1 0 0 -1 67.5776 19.9972)" fill="white"/>
<ellipse cx="3.98679" cy="3.99945" rx="3.98679" ry="3.99945" transform="matrix(1 0 0 -1 64.6782 28.7233)" fill="white"/>
<ellipse cx="3.98678" cy="3.99945" rx="3.98678" ry="3.99945" transform="matrix(1 0 0 -1 55.2549 28.7233)" fill="white"/>
<ellipse cx="3.98678" cy="3.99945" rx="3.98678" ry="3.99945" transform="matrix(1 0 0 -1 52.3553 19.9972)" fill="white"/>
<ellipse cx="64.1345" cy="15.816" rx="0.543653" ry="0.545379" fill="white"/>
<ellipse cx="64.1345" cy="20.9062" rx="0.543653" ry="0.54538" fill="white"/>
<ellipse cx="66.6715" cy="17.9975" rx="0.543655" ry="0.545379" fill="white"/>
<ellipse cx="61.5975" cy="17.9975" rx="0.543653" ry="0.545379" fill="white"/>
<path fill-rule="evenodd" clip-rule="evenodd" d="M75.6391 32.6424C72.4957 35.1939 68.493 36.7222 64.1345 36.7222C54.0261 36.7222 45.8315 28.5017 45.8315 18.3611C45.8315 8.22054 54.0261 0 64.1345 0C74.2429 0 82.4375 8.22054 82.4375 18.3611C82.4375 22.0723 81.3399 25.5264 79.4526 28.4145C79.1574 29.7773 79.057 31.6948 80.0817 32.7227C80.5045 33.2075 81.8938 34.2498 84.0684 34.5407L78.4507 38.9037C77.5912 37.9401 76.0378 35.5332 75.6391 32.6424ZM78.8131 18.3611C78.8131 26.4936 72.2413 33.0863 64.1345 33.0863C56.0277 33.0863 49.4559 26.4936 49.4559 18.3611C49.4559 10.2286 56.0277 3.63587 64.1345 3.63587C72.2413 3.63587 78.8131 10.2286 78.8131 18.3611ZM79.7192 33.6317L77.3634 35.2679C77.5446 35.8738 78.0158 37.0858 78.4507 37.0858L81.5314 34.7225C81.2294 34.6619 80.4441 34.3589 79.7192 33.6317ZM78.4507 31.0866L76.4573 32.541C76.6023 33.559 77.0009 34.4801 77.1822 34.7225L79.3568 33.2681C78.9218 32.8318 78.5111 31.632 78.4507 31.0866Z" fill="white"/>
<path d="M16.5027 74.6972C15.8386 75.3353 12.2177 77.3268 11.8612 75.3353C11.6864 74.3395 20.1306 60.1884 17.5512 56.1913C13.1963 55.3007 10.4631 61.7031 9.0371 65.1813C6.72333 70.8193 2.67598 89.0306 6.94003 93.3362C11.5047 97.9364 17.5163 89.5355 18.7815 85.5594C20.3054 80.7699 20.7667 67.2499 28.1274 68.8418C26.317 75.5807 22.5982 81.9901 23.2343 89.2129C25.6459 90.8468 27.7919 86.8708 28.7076 84.9213C31.1612 79.69 30.1476 68.8418 37.054 69.2485C36.7814 71.1559 36.1103 73.0072 35.7957 74.9216C35.6559 75.7771 34.7192 77.5863 36.2291 77.3969C38.1794 70.9525 45.1417 57.6218 52.3696 65.7563L45.2675 94.8088L47.1898 96.1552C48.6228 95.8467 52.8939 88.1681 53.1665 86.5832C53.6069 83.9606 51.8873 82.4669 51.8174 80.3001C51.6286 74.7112 56.5288 62.0677 63.3862 62.7479C72.6972 63.6736 66.5458 85.3911 57.3746 81.4922C57.088 87.572 61.1004 87.1723 64.8681 83.9466C70.3555 79.2623 72.7042 64.1855 73.6339 63.5614C74.0883 63.2528 76.0595 63.4492 76.4789 64.3538L77.2758 69.2695C79.7643 61.2543 90.0959 55.8617 89.0684 68.4491C91.1445 67.1518 91.6478 64.4379 94.1433 63.365C97.5895 61.8784 100.651 62.9513 100.281 67.0185C99.9032 71.1629 89.9421 89.6056 92.3118 92.088C96.1425 92.5018 101.273 83.9536 101.874 80.9032C102.343 78.547 101.791 76.1628 102.126 73.8206C103.349 65.3706 114.876 54.5644 119.532 66.8152L119.951 64.3818L123.23 64.7255C126.934 67.271 116.086 81.5132 115.841 85.9591C115.771 87.2354 115.722 87.3757 117.071 87.1863C119.427 85.9661 121.307 84.3463 121.566 81.4922L123.894 83.3786C122.286 90.2858 111.94 92.5228 112.639 83.624C112.786 81.7166 114.695 79.9214 113.842 78.2314C110.675 82.2145 107.404 87.565 102.063 83.1191C100.386 87.4177 95.7231 96.9547 89.8583 94.1216C82.5954 90.6154 93.8567 70.4546 95.5483 65.1883C93.9685 63.5965 88.3763 73.0913 87.8101 74.1362C86.2723 76.9902 85.2517 81.2748 84.0144 83.3715C82.2179 86.422 79.9042 84.6478 80.1488 81.1977C80.4773 76.5975 83.7628 70.097 84.8183 65.4267C85.049 64.3959 85.3286 62.9162 83.7698 63.5614C79.0653 65.5109 73.8506 82.9438 71.9632 88.0138L68.8456 87.0671L68.7128 82.3057C64.7913 87.0811 60.8907 91.0151 54.5785 87.2494C52.9078 87.6281 49.4127 102.523 43.0586 97.8593C37.1309 93.5115 45.2256 72.2708 46.7704 66.0017C45.3863 64.48 40.4722 72.5233 39.934 73.3999C36.7464 78.5961 35.0967 84.5637 31.7344 89.6407L29.3088 87.2003C27.2187 90.8468 21.8712 94.4232 19.9419 88.8342H18.7535C16.4118 93.0487 12.4623 98.3992 6.91906 96.6251C-6.05483 92.4597 0.865506 56.5139 14.098 53.9053C24.136 51.9277 20.9415 70.4266 16.4957 74.6972H16.5027ZM116.701 64.3538C110.941 64.7044 106.775 75.5527 106.334 80.4614C106.208 81.8779 106.069 82.1584 107.369 83.091C111.745 78.1894 119.553 71.5065 116.701 64.3608V64.3538ZM57.3816 79.8303C63.6938 82.9228 68.6848 66.738 65.0848 65.9807C62.0301 65.3355 57.1719 77.1305 57.3816 79.8303Z" fill="#D9D9D9"/>
<path d="M27.3236 65.9877C28.447 65.9877 29.3577 65.0741 29.3577 63.9471C29.3577 62.8201 28.447 61.9065 27.3236 61.9065C26.2002 61.9065 25.2894 62.8201 25.2894 63.9471C25.2894 65.0741 26.2002 65.9877 27.3236 65.9877Z" fill="#D9D9D9"/>
<path d="M56.5078 101.029C55.7528 100.3 58.4231 96.7793 59.3318 96.1202C70.663 87.9156 96.9463 113.448 106.817 94.8229C107.767 93.0277 107.341 89.5215 110.186 91.6112C112.709 93.4554 109.144 99.409 107.313 101.043C94.2201 112.747 71.0265 94.0725 56.5078 101.029Z" fill="#D9D9D9"/>
<path d="M115.944 57.2946V45.5131H117.535V57.2946H115.944ZM117.027 57.2946V55.8346H123.323V57.2946H117.027Z" fill="white"/>
<path d="M96.3798 57.2946L101.186 45.5131H102.336L107.125 57.2946H105.399L101.456 47.3295H102.049L98.072 57.2946H96.3798ZM98.6643 54.6293V53.2372H104.841V54.6293H98.6643Z" fill="white"/>
<path d="M84.1691 57.4643C83.323 57.4643 82.5389 57.3115 81.8169 57.006C81.0949 56.6891 80.4631 56.2534 79.9216 55.6988C79.3914 55.1442 78.9796 54.4992 78.6863 53.7635C78.3929 53.0279 78.2463 52.2413 78.2463 51.4038C78.2463 50.555 78.3929 49.7628 78.6863 49.0272C78.9796 48.2915 79.3914 47.6521 79.9216 47.1089C80.4631 46.5543 81.0892 46.1242 81.8 45.8187C82.522 45.5018 83.3061 45.3433 84.1522 45.3433C85.0773 45.3433 85.8896 45.5018 86.589 45.8187C87.2885 46.1356 87.909 46.5656 88.4505 47.1089L87.3505 48.2123C86.9782 47.7936 86.5213 47.4654 85.9798 47.2277C85.4496 46.99 84.8404 46.8712 84.1522 46.8712C83.5317 46.8712 82.962 46.9844 82.443 47.2107C81.9241 47.4257 81.4728 47.737 81.0892 48.1444C80.7057 48.5518 80.4067 49.0328 80.1924 49.5874C79.9893 50.1419 79.8878 50.7474 79.8878 51.4038C79.8878 52.0602 79.9893 52.6657 80.1924 53.2203C80.4067 53.7748 80.7057 54.2558 81.0892 54.6633C81.4728 55.0707 81.9241 55.3876 82.443 55.6139C82.962 55.829 83.5317 55.9365 84.1522 55.9365C84.8855 55.9365 85.5229 55.8176 86.0644 55.58C86.606 55.331 87.0629 54.9971 87.4351 54.5784L88.5351 55.6648C87.9936 56.2307 87.3562 56.6721 86.6229 56.989C85.9008 57.3059 85.0829 57.4643 84.1691 57.4643Z" fill="white"/>
<path d="M67.4247 57.2946V45.5131H69.0154V57.2946H67.4247Z" fill="white"/>
<path d="M46.1781 57.2946V45.5131H47.295L52.2702 53.7126H51.5087L56.4839 45.5131H57.6007V57.2946H56.01V48.3142L56.3823 48.416L52.4563 54.8839H51.3394L47.4134 48.416L47.7688 48.3142V57.2946H46.1781Z" fill="white"/>
<path d="M26.6133 57.2946L31.4193 45.5131H32.57L37.3591 57.2946H35.633L31.6901 47.3295H32.2824L28.3056 57.2946H26.6133ZM28.8979 54.6293V53.2372H35.0745V54.6293H28.8979Z" fill="white"/>
</svg>
